<svg width="36" height="36" viewBox="0 0 36 36" fill="none" xmlns="http://www.w3.org/2000/svg">
<path d="M16.643 0.0421476C16.6148 0.0702726 16.4742 0.0983976 16.3266 0.105429C16.1859 0.11246 15.975 0.140585 15.8555 0.161679C15.743 0.189804 15.5391 0.22496 15.4055 0.246054C15.2719 0.267148 15.1031 0.323398 15.0188 0.365585C14.9414 0.407773 14.8641 0.435898 14.85 0.428866C14.8008 0.379648 13.5 0.752304 13.4297 0.836679C13.4086 0.857773 13.3453 0.885898 13.2891 0.89996C13.0359 0.949179 11.8617 1.53277 11.8266 1.63121C11.8125 1.65934 11.7773 1.6734 11.7422 1.6523C11.7141 1.63824 11.6367 1.68043 11.5664 1.75777C11.4961 1.83512 11.4117 1.8984 11.3766 1.8984C11.3203 1.8984 10.7719 2.2359 10.6875 2.32027C10.6664 2.34137 10.4766 2.48902 10.2656 2.64371C9.82266 2.97418 8.72578 4.0359 8.36719 4.49293C8.23359 4.66168 8.04375 4.87965 7.95234 4.98512C7.86094 5.08355 7.74141 5.2734 7.69219 5.39293C7.63594 5.51949 7.55859 5.62496 7.52344 5.62496C7.48125 5.62496 7.45313 5.66012 7.45313 5.7023C7.45313 5.74449 7.38984 5.87105 7.30547 5.98355C7.22813 6.09605 7.18594 6.18746 7.21406 6.18746C7.23516 6.18746 7.22109 6.22965 7.17891 6.27887C7.03125 6.46168 6.53906 7.47418 6.53906 7.60074C6.53906 7.67808 6.51094 7.73433 6.46875 7.73433C6.43359 7.73433 6.39844 7.80465 6.39844 7.89605C6.39844 7.98746 6.37031 8.0859 6.34219 8.12105C6.23672 8.24058 6.01172 8.89449 5.94141 9.28121C5.93438 9.33746 5.90625 9.4359 5.89219 9.49215C5.81484 9.69605 5.70938 10.1601 5.70938 10.2656C5.70938 10.3992 5.64609 10.7367 5.60391 10.807C5.51953 10.9406 5.45625 12.1007 5.44922 13.3593C5.44922 14.8148 5.49141 15.3703 5.65313 16.1507C5.70938 16.4179 5.77266 16.7132 5.78672 16.8046C5.88516 17.3461 6.23672 18.3796 6.63047 19.3007C6.84844 19.807 7.53047 21.0093 7.65703 21.0937C7.68516 21.1148 7.76953 21.2343 7.83984 21.3539C7.91719 21.4804 8.00156 21.5859 8.03672 21.5859C8.06484 21.5859 8.07188 21.6211 8.05078 21.6562C8.02969 21.6984 8.05781 21.7476 8.11406 21.7687C8.17734 21.7898 8.22656 21.8461 8.22656 21.8953C8.22656 21.9375 8.33906 22.0992 8.47266 22.2468C8.60625 22.4015 8.69766 22.5492 8.67656 22.5843C8.65547 22.6125 8.69063 22.6617 8.74688 22.6828C8.81016 22.7039 8.85938 22.7601 8.85938 22.8093C8.85938 22.8515 8.95781 22.9921 9.07031 23.1257C9.18984 23.2523 9.28125 23.407 9.28125 23.4632C9.28125 23.5125 9.33047 23.5757 9.38672 23.5968C9.44297 23.625 9.49219 23.6812 9.49219 23.7234C9.49219 23.7726 9.59063 23.9203 9.70313 24.0468C9.82266 24.1734 9.91406 24.307 9.91406 24.3421C9.91406 24.4265 10.357 25.0312 10.4273 25.0312C10.4555 25.0312 10.4625 25.0593 10.4414 25.1015C10.4203 25.1367 10.4344 25.1718 10.4695 25.1718C10.5117 25.1718 10.5469 25.2211 10.5469 25.2773C10.5469 25.3336 10.575 25.3828 10.6102 25.3828C10.6453 25.3828 10.6945 25.439 10.7227 25.5164C10.7438 25.5867 10.8422 25.7343 10.9336 25.8328C11.025 25.9312 11.0883 26.0156 11.0742 26.0156C11.0602 26.0156 11.1234 26.1 11.2148 26.1984C11.3133 26.3039 11.3906 26.4234 11.3906 26.4726C11.3906 26.5218 11.468 26.6414 11.5664 26.7468C11.6578 26.8453 11.7141 26.9296 11.693 26.9296C11.6719 26.9296 11.7352 27.014 11.8406 27.1125C11.9391 27.2179 12.0234 27.3304 12.0234 27.3726C12.0234 27.4218 12.3258 27.8718 12.6 28.2304C12.6352 28.2656 12.7406 28.4273 12.8461 28.582C12.9445 28.7367 13.2047 29.1164 13.4156 29.4257C13.6336 29.7351 13.9148 30.1429 14.0484 30.3398C14.1891 30.5296 14.3227 30.6984 14.3578 30.7125C14.3859 30.7265 14.4141 30.7828 14.4141 30.839C14.4141 30.8953 14.4422 30.9375 14.4773 30.9375C14.5125 30.9375 14.5758 31.0289 14.618 31.1343C14.6672 31.2398 14.7797 31.4156 14.8711 31.5211C14.9695 31.6195 15.0469 31.739 15.0469 31.7812C15.0469 31.8164 15.075 31.8515 15.1031 31.8515C15.1383 31.8515 15.2156 31.964 15.2789 32.0976C15.3422 32.2312 15.4266 32.3437 15.4688 32.3437C15.5039 32.3437 15.5391 32.3859 15.5391 32.4351C15.5391 32.4843 15.6023 32.5898 15.6727 32.6742C15.743 32.7515 15.8555 32.9132 15.9188 33.0328C15.982 33.1593 16.0664 33.2578 16.1016 33.2578C16.1438 33.2578 16.1719 33.2929 16.1719 33.3351C16.1719 33.4054 16.6219 34.0734 16.7344 34.1718C16.7555 34.1929 16.875 34.3687 17.0016 34.5656C17.1281 34.7625 17.2969 35.0015 17.3742 35.0929C17.4586 35.1843 17.5781 35.3742 17.6555 35.5078C17.8523 35.8804 17.993 36.0351 18.0563 35.9578C18.225 35.775 19.0547 34.5234 19.0547 34.4671C19.0547 34.425 19.0828 34.3828 19.1109 34.3687C19.2023 34.3406 19.6875 33.6445 19.6875 33.5531C19.6875 33.5109 19.7086 33.4687 19.7438 33.4546C19.8281 33.4195 20.3203 32.7234 20.3203 32.639C20.3203 32.5968 20.3414 32.5546 20.3766 32.5406C20.4328 32.5195 20.9672 31.7812 21.4102 31.1132C21.5648 30.8812 21.7266 30.6562 21.7617 30.614C21.8039 30.5718 21.8953 30.4242 21.9727 30.2836C22.05 30.1429 22.1344 30.0234 22.1625 30.0234C22.1977 30.0234 22.2188 29.9742 22.2188 29.9179C22.2188 29.8687 22.2609 29.7914 22.3102 29.7632C22.3594 29.7351 22.5211 29.5101 22.6617 29.2711C22.8094 29.032 22.95 28.8281 22.9781 28.814C23.0063 28.8 23.1398 28.6171 23.2664 28.4062C23.4 28.1953 23.5406 27.9843 23.5828 27.9492C23.632 27.907 23.7727 27.7101 23.8992 27.5062C24.0328 27.2953 24.1734 27.0914 24.2156 27.0492C24.2578 27 24.4125 26.789 24.5531 26.5781C24.7008 26.3671 24.9117 26.0578 25.0313 25.889C25.1438 25.7273 25.2422 25.5586 25.2422 25.5234C25.2422 25.4882 25.2984 25.425 25.3688 25.3898C25.432 25.3476 25.4602 25.3125 25.418 25.3125C25.3688 25.3125 25.3688 25.2914 25.418 25.2562C25.5305 25.1789 25.875 24.6937 25.875 24.6234C25.875 24.5812 25.9242 24.532 25.9875 24.5109C26.0438 24.4898 26.0789 24.4406 26.0578 24.4054C26.0297 24.3703 26.0367 24.3281 26.0648 24.314C26.1422 24.2859 26.7328 23.4843 26.6836 23.4843C26.6625 23.4843 26.7047 23.4211 26.782 23.3367C26.8523 23.2593 27.1336 22.8726 27.4008 22.4789C27.6609 22.0851 27.9 21.7546 27.9352 21.7406C27.9633 21.7265 27.9844 21.6843 27.9844 21.6421C27.9844 21.5789 28.0828 21.4453 28.4063 21.0445C28.4484 20.9953 28.4766 20.939 28.4766 20.9109C28.4766 20.8828 28.5188 20.8054 28.575 20.7492C28.7297 20.5734 29.3906 19.2867 29.3906 19.1671C29.3906 19.1039 29.4188 19.0546 29.4609 19.0546C29.4961 19.0546 29.5523 18.9703 29.5734 18.8578C29.6016 18.7523 29.6789 18.5414 29.7492 18.3937C29.8125 18.239 29.8547 18.0773 29.8336 18.0211C29.8125 17.9718 29.8336 17.9296 29.8828 17.9296C29.925 17.9296 29.9531 17.8875 29.932 17.8382C29.918 17.7961 29.9672 17.5781 30.0445 17.3671C30.1148 17.1562 30.1922 16.9031 30.2063 16.8046C30.2203 16.7062 30.2555 16.5515 30.2766 16.4531C30.3047 16.3546 30.3328 16.1789 30.3469 16.0664C30.3891 15.7429 30.4383 15.4546 30.4875 15.2578C30.5086 15.1593 30.5438 14.414 30.5508 13.6054C30.5719 12.2906 30.5367 11.6367 30.4102 10.9336C30.3891 10.814 30.3609 10.6453 30.3398 10.5468C30.2766 10.1179 30.2273 9.92105 30.0938 9.45699C30.0094 9.18277 29.918 8.83824 29.8758 8.68355C29.8406 8.52887 29.7914 8.35308 29.7633 8.29683C29.7422 8.24058 29.7141 8.1773 29.707 8.15621C29.7 8.13512 29.6508 8.02262 29.6016 7.91012C29.4961 7.67105 29.5031 7.69215 29.4328 7.43199C29.3977 7.32652 29.3484 7.24215 29.3133 7.24215C29.2781 7.24215 29.25 7.19293 29.25 7.13668C29.25 6.99605 28.9055 6.29996 28.8211 6.27183C28.7859 6.25777 28.7578 6.20855 28.7578 6.1523C28.7578 6.10308 28.7086 6.02574 28.6523 5.97652C28.5961 5.9273 28.5469 5.84293 28.5469 5.78668C28.5469 5.73043 28.5047 5.63902 28.4625 5.5898C28.2656 5.37183 28.1953 5.28043 28.1953 5.23121C28.1953 5.17496 27.7031 4.55621 27.5977 4.4859C27.5555 4.45074 27.5555 4.42965 27.5977 4.42965C27.6328 4.42965 27.3797 4.15543 27.0281 3.8109C26.0508 2.86871 25.8258 2.67184 25.7695 2.67184C25.7414 2.67184 25.657 2.60152 25.5867 2.51715C25.5094 2.4398 25.4531 2.39762 25.4531 2.43277C25.4531 2.46793 25.425 2.4609 25.3969 2.42574C25.3055 2.29215 24.3773 1.66637 24.2789 1.66637C24.2297 1.66637 24.1875 1.63824 24.1875 1.60309C24.1875 1.57496 24.1453 1.54684 24.0891 1.54684C24.0398 1.54684 23.9625 1.50465 23.9203 1.45543C23.8781 1.40621 23.6391 1.28668 23.3859 1.19527C23.1328 1.09684 22.9219 0.998398 22.9219 0.963241C22.9219 0.935116 22.8797 0.914023 22.8234 0.914023C22.7742 0.914023 22.6336 0.864804 22.5281 0.808554C22.4156 0.752304 22.2539 0.703085 22.1695 0.703085C22.0852 0.703085 22.0008 0.67496 21.9797 0.639804C21.9445 0.590585 21.6141 0.485116 21.4102 0.464023C21.375 0.456991 21.3047 0.428866 21.2625 0.407773C21.2203 0.379648 21.0656 0.33746 20.925 0.323398C20.7844 0.309335 20.5664 0.260116 20.4398 0.217929C20.3203 0.175741 20.025 0.126523 19.793 0.0983976C19.118 0.0280851 16.6992 -0.0141024 16.643 0.0421476ZM19.1813 8.45855C19.3289 8.5148 19.4766 8.57105 19.5117 8.58512C19.9406 8.69762 20.8617 9.3234 21.2273 9.74527C21.6422 10.2234 21.8602 10.582 21.9164 10.8632C21.9305 10.9336 21.9656 11.0179 22.0008 11.039C22.05 11.0742 22.0781 11.1656 22.1977 11.707C22.2539 11.9671 22.2539 12.9937 22.1977 13.1836C21.9656 13.9851 21.7336 14.5406 21.5367 14.7586C21.4453 14.85 21.375 14.9484 21.375 14.9836C21.375 15.0609 20.6859 15.7359 20.6438 15.7007C20.6227 15.6796 20.5664 15.7289 20.5172 15.8132C20.468 15.8976 20.3977 15.9609 20.3625 15.9609C20.3273 15.9609 20.243 16.0031 20.1867 16.0593C20.0813 16.1437 19.4133 16.4179 19.0898 16.5023C18.8789 16.5586 17.4164 16.5867 17.332 16.5375C17.2969 16.5093 17.2336 16.4882 17.1914 16.4812C17.1563 16.4671 17.0578 16.4531 16.9805 16.432C16.7273 16.3828 15.7852 15.8976 15.5953 15.7148C15.4898 15.6164 15.3844 15.539 15.3633 15.539C15.1313 15.539 14.2102 14.0414 14.1539 13.5703C14.1398 13.4718 14.0977 13.3101 14.0695 13.2117C13.9641 12.9023 14.0273 11.6718 14.1609 11.2851C14.3438 10.7718 14.5406 10.35 14.625 10.3007C14.6672 10.2726 14.6813 10.2304 14.6602 10.1953C14.6391 10.1601 14.6813 10.0898 14.7656 10.0406C14.843 9.99137 14.9063 9.92105 14.9063 9.89293C14.9063 9.79449 15.6797 9.0773 15.8273 9.03512C15.9047 9.00699 15.9609 8.95777 15.9609 8.92262C15.9609 8.88043 15.9961 8.8734 16.0313 8.89449C16.0734 8.91558 16.1016 8.90152 16.1016 8.86637C16.1016 8.82418 16.1578 8.78902 16.2281 8.78902C16.2984 8.78902 16.3969 8.74683 16.4391 8.70465C16.5305 8.61324 17.0227 8.47262 17.5078 8.39527C17.6414 8.36715 17.7609 8.34605 17.768 8.33902C17.8313 8.28277 18.9844 8.38121 19.1813 8.45855Z" fill="#57AAF7"/>
</svg>
