<svg width="287" height="287" viewBox="0 0 287 287" fill="none" xmlns="http://www.w3.org/2000/svg">
<path d="M33.58 66.7581C52.0148 66.7581 66.9591 51.8138 66.9591 33.3791C66.9591 14.9443 52.0148 0 33.58 0C15.1453 0 0.200989 14.9443 0.200989 33.3791C0.200989 51.8138 15.1453 66.7581 33.58 66.7581Z" fill="url(#paint0_linear_2_3)"/>
<path d="M253.421 66.7581C271.855 66.7581 286.8 51.8138 286.8 33.3791C286.8 14.9443 271.855 0 253.421 0C234.986 0 220.042 14.9443 220.042 33.3791C220.042 51.8138 234.986 66.7581 253.421 66.7581Z" fill="url(#paint1_linear_2_3)"/>
<path d="M143.5 66.7581C161.935 66.7581 176.879 51.8138 176.879 33.3791C176.879 14.9443 161.935 0 143.5 0C125.066 0 110.121 14.9443 110.121 33.3791C110.121 51.8138 125.066 66.7581 143.5 66.7581Z" fill="url(#paint2_linear_2_3)"/>
<path d="M33.3797 176.88C51.8148 176.88 66.7594 161.935 66.7594 143.5C66.7594 125.065 51.8148 110.121 33.3797 110.121C14.9446 110.121 0 125.065 0 143.5C0 161.935 14.9446 176.88 33.3797 176.88Z" fill="url(#paint3_linear_2_3)"/>
<path d="M253.22 176.88C271.655 176.88 286.599 161.935 286.599 143.5C286.599 125.065 271.655 110.121 253.22 110.121C234.785 110.121 219.84 125.065 219.84 143.5C219.84 161.935 234.785 176.88 253.22 176.88Z" fill="url(#paint4_linear_2_3)"/>
<path d="M143.3 176.88C161.735 176.88 176.68 161.935 176.68 143.5C176.68 125.065 161.735 110.121 143.3 110.121C124.865 110.121 109.92 125.065 109.92 143.5C109.92 161.935 124.865 176.88 143.3 176.88Z" fill="url(#paint5_linear_2_3)"/>
<path d="M33.3797 287C51.8144 287 66.7587 272.056 66.7587 253.621C66.7587 235.186 51.8144 220.242 33.3797 220.242C14.9449 220.242 0.000610352 235.186 0.000610352 253.621C0.000610352 272.056 14.9449 287 33.3797 287Z" fill="url(#paint6_linear_2_3)"/>
<path d="M253.22 287C271.654 287 286.599 272.056 286.599 253.621C286.599 235.186 271.654 220.242 253.22 220.242C234.785 220.242 219.841 235.186 219.841 253.621C219.841 272.056 234.785 287 253.22 287Z" fill="url(#paint7_linear_2_3)"/>
<path d="M143.3 287C161.735 287 176.679 272.056 176.679 253.621C176.679 235.186 161.735 220.242 143.3 220.242C124.865 220.242 109.921 235.186 109.921 253.621C109.921 272.056 124.865 287 143.3 287Z" fill="url(#paint8_linear_2_3)"/>
<defs>
<linearGradient id="paint0_linear_2_3" x1="2.76145" y1="6.28038" x2="59.983" y2="63.0764" gradientUnits="userSpaceOnUse">
<stop stop-color="#F94646"/>
<stop offset="1" stop-color="#44835C"/>
</linearGradient>
<linearGradient id="paint1_linear_2_3" x1="222.602" y1="6.28038" x2="279.824" y2="63.0764" gradientUnits="userSpaceOnUse">
<stop stop-color="#F94646"/>
<stop offset="1" stop-color="#44835C"/>
</linearGradient>
<linearGradient id="paint2_linear_2_3" x1="112.682" y1="6.28038" x2="169.903" y2="63.0764" gradientUnits="userSpaceOnUse">
<stop stop-color="#F94646"/>
<stop offset="1" stop-color="#44835C"/>
</linearGradient>
<linearGradient id="paint3_linear_2_3" x1="2.56051" y1="116.401" x2="59.7831" y2="173.198" gradientUnits="userSpaceOnUse">
<stop stop-color="#F94646"/>
<stop offset="1" stop-color="#44835C"/>
</linearGradient>
<linearGradient id="paint4_linear_2_3" x1="222.4" y1="116.401" x2="279.623" y2="173.198" gradientUnits="userSpaceOnUse">
<stop stop-color="#F94646"/>
<stop offset="1" stop-color="#44835C"/>
</linearGradient>
<linearGradient id="paint5_linear_2_3" x1="112.481" y1="116.401" x2="169.703" y2="173.198" gradientUnits="userSpaceOnUse">
<stop stop-color="#F94646"/>
<stop offset="1" stop-color="#44835C"/>
</linearGradient>
<linearGradient id="paint6_linear_2_3" x1="2.56107" y1="226.522" x2="59.7826" y2="283.318" gradientUnits="userSpaceOnUse">
<stop stop-color="#F94646"/>
<stop offset="1" stop-color="#44835C"/>
</linearGradient>
<linearGradient id="paint7_linear_2_3" x1="222.401" y1="226.522" x2="279.623" y2="283.318" gradientUnits="userSpaceOnUse">
<stop stop-color="#F94646"/>
<stop offset="1" stop-color="#44835C"/>
</linearGradient>
<linearGradient id="paint8_linear_2_3" x1="112.481" y1="226.522" x2="169.703" y2="283.318" gradientUnits="userSpaceOnUse">
<stop stop-color="#F94646"/>
<stop offset="1" stop-color="#44835C"/>
</linearGradient>
</defs>
</svg>
